<svg xmlns="http://www.w3.org/2000/svg" xmlns:xlink="http://www.w3.org/1999/xlink" version="1.1" style="" xml:space="preserve" width="18" height="10"><rect id="backgroundrect" width="100%" height="100%" x="0" y="0" fill="none" stroke="none"/>

<g class="currentLayer" style=""><title>Layer 1</title><path d="M6.948979578722192,7.112244784832001 H4.938775501955225 C3.2301020367033018,7.112244784832001 1.9234693868047728,6.249999910593033 1.9234693868047728,5.122448921203613 s1.306632649898529,-1.989795863628388 3.0153061151504517,-1.989795863628388 h1.0051020383834839 V2.4693877696990967 H4.938775501955225 C2.7275510175115603,2.4693877696990967 0.9183673484212888,3.663265287876129 0.9183673484212888,5.122448921203613 s1.809183669090271,2.6530611515045166 4.0204081535339355,2.6530611515045166 h2.0102040767669678 c2.2112244844436653,0 4.0204081535339355,-1.1938775181770325 4.0204081535339355,-2.6530611515045166 h-1.0051020383834839 C9.964285693872643,6.249999910593033 8.657653043974115,7.112244784832001 6.948979578722192,7.112244784832001 zM12.979591809023095,2.4693877696990967 h-2.0102040767669678 C8.758163247812464,2.4693877696990967 6.948979578722192,3.663265287876129 6.948979578722192,5.122448921203613 h1.0051020383834839 c0,-1.1275509893894198 1.306632649898529,-1.989795863628388 3.0153061151504517,-1.989795863628388 h2.0102040767669678 c1.7086734652519229,0 3.0153061151504517,0.862244874238968 3.0153061151504517,1.989795863628388 s-1.306632649898529,1.989795863628388 -3.0153061151504517,1.989795863628388 h-1.0051020383834839 v0.6632652878761293 h1.0051020383834839 c2.2112244844436653,0 4.0204081535339355,-1.1938775181770325 4.0204081535339355,-2.6530611515045166 S15.19081629346676,2.4693877696990967 12.979591809023095,2.4693877696990967 z" id="svg_1" class="selected" fill-opacity="1" fill="#f58220"/></g></svg>